<svg width="145" height="30" viewBox="0 0 145 30" fill="none" xmlns="http://www.w3.org/2000/svg">
<path d="M15.2188 6.53906L8.28516 29H0.921875L11.3711 0.5625H16.0391L15.2188 6.53906ZM20.9609 29L14.0078 6.53906L13.1094 0.5625H17.8359L28.3438 29H20.9609ZM20.6875 18.3945V23.6875H6.09766V18.3945H20.6875ZM53.2656 13.8047V25.4844C52.7839 26.0182 52.0417 26.5911 51.0391 27.2031C50.0495 27.8021 48.7995 28.3164 47.2891 28.7461C45.7786 29.1758 44.0013 29.3906 41.957 29.3906C40.069 29.3906 38.3568 29.0911 36.8203 28.4922C35.2839 27.8802 33.9622 26.9883 32.8555 25.8164C31.7617 24.6315 30.9154 23.1862 30.3164 21.4805C29.7305 19.7617 29.4375 17.7956 29.4375 15.582V14C29.4375 11.7865 29.737 9.82031 30.3359 8.10156C30.9349 6.38281 31.7747 4.9375 32.8555 3.76562C33.9492 2.58073 35.2318 1.68229 36.7031 1.07031C38.1875 0.458333 39.8151 0.152344 41.5859 0.152344C44.2031 0.152344 46.332 0.56901 47.9727 1.40234C49.6133 2.22266 50.8568 3.36198 51.7031 4.82031C52.5495 6.26562 53.0638 7.9388 53.2461 9.83984H46.6641C46.5339 8.90234 46.2865 8.10807 45.9219 7.45703C45.5703 6.79297 45.0625 6.29167 44.3984 5.95312C43.7344 5.60156 42.875 5.42578 41.8203 5.42578C41 5.42578 40.2513 5.60156 39.5742 5.95312C38.9102 6.30469 38.3438 6.83854 37.875 7.55469C37.4062 8.25781 37.0417 9.14323 36.7812 10.2109C36.5339 11.2786 36.4102 12.5286 36.4102 13.9609V15.582C36.4102 17.0013 36.5273 18.2448 36.7617 19.3125C37.0091 20.3802 37.3737 21.2721 37.8555 21.9883C38.3503 22.6914 38.9753 23.2253 39.7305 23.5898C40.4987 23.9414 41.4036 24.1172 42.4453 24.1172C43.1745 24.1172 43.7995 24.0586 44.3203 23.9414C44.8411 23.8112 45.2708 23.6549 45.6094 23.4727C45.9609 23.2773 46.2279 23.0951 46.4102 22.9258V18.5117H41.6445V13.8047H53.2656ZM72.6992 0.5625H79.5547V19.1367C79.5547 21.3503 79.0924 23.2253 78.168 24.7617C77.2435 26.2852 75.9479 27.4375 74.2812 28.2188C72.6146 29 70.6549 29.3906 68.4023 29.3906C66.1758 29.3906 64.2161 29 62.5234 28.2188C60.8438 27.4375 59.5286 26.2852 58.5781 24.7617C57.6406 23.2253 57.1719 21.3503 57.1719 19.1367V0.5625H64.0469V19.1367C64.0469 20.3086 64.2161 21.2656 64.5547 22.0078C64.8932 22.737 65.388 23.2708 66.0391 23.6094C66.6901 23.9479 67.4779 24.1172 68.4023 24.1172C69.3398 24.1172 70.1276 23.9479 70.7656 23.6094C71.4036 23.2708 71.8854 22.737 72.2109 22.0078C72.5365 21.2656 72.6992 20.3086 72.6992 19.1367V0.5625ZM91.1562 0.5625V29H84.3203V0.5625H91.1562ZM109.164 0.5625V29H102.309V0.5625H109.164ZM117.719 0.5625V5.85547H93.9492V0.5625H117.719ZM144.145 14.2148V15.3672C144.145 17.5417 143.839 19.4948 143.227 21.2266C142.628 22.9453 141.775 24.4167 140.668 25.6406C139.561 26.8516 138.253 27.7826 136.742 28.4336C135.232 29.0716 133.565 29.3906 131.742 29.3906C129.906 29.3906 128.227 29.0716 126.703 28.4336C125.193 27.7826 123.878 26.8516 122.758 25.6406C121.651 24.4167 120.792 22.9453 120.18 21.2266C119.581 19.4948 119.281 17.5417 119.281 15.3672V14.2148C119.281 12.0404 119.581 10.0872 120.18 8.35547C120.792 6.6237 121.645 5.15234 122.738 3.94141C123.845 2.71745 125.154 1.78646 126.664 1.14844C128.188 0.497396 129.867 0.171875 131.703 0.171875C133.526 0.171875 135.193 0.497396 136.703 1.14844C138.227 1.78646 139.542 2.71745 140.648 3.94141C141.755 5.15234 142.615 6.6237 143.227 8.35547C143.839 10.0872 144.145 12.0404 144.145 14.2148ZM137.191 15.3672V14.1758C137.191 12.7695 137.068 11.5326 136.82 10.4648C136.586 9.38411 136.234 8.47917 135.766 7.75C135.297 7.02083 134.717 6.47396 134.027 6.10938C133.35 5.73177 132.576 5.54297 131.703 5.54297C130.792 5.54297 129.997 5.73177 129.32 6.10938C128.643 6.47396 128.077 7.02083 127.621 7.75C127.165 8.47917 126.82 9.38411 126.586 10.4648C126.365 11.5326 126.254 12.7695 126.254 14.1758V15.3672C126.254 16.7604 126.365 17.9974 126.586 19.0781C126.82 20.1458 127.165 21.0508 127.621 21.793C128.09 22.5352 128.663 23.0951 129.34 23.4727C130.03 23.8503 130.831 24.0391 131.742 24.0391C132.615 24.0391 133.389 23.8503 134.066 23.4727C134.743 23.0951 135.31 22.5352 135.766 21.793C136.234 21.0508 136.586 20.1458 136.82 19.0781C137.068 17.9974 137.191 16.7604 137.191 15.3672Z" fill="#6E29A9"/>
</svg>
